<?xml version="1.0" standalone="no"?>
<!DOCTYPE svg PUBLIC "-//W3C//DTD SVG 1.1//EN" "http://www.w3.org/Graphics/SVG/1.1/DTD/svg11.dtd">
<svg xmlns="http://www.w3.org/2000/svg">
<metadata>Copyright (C) 2017 by original authors @ fontello.com</metadata>
<defs>
<font id="fontello-custom" horiz-adv-x="1000" >
<font-face font-family="fontello-custom" font-weight="400" font-stretch="normal" units-per-em="1000" ascent="850" descent="-150" />
<missing-glyph horiz-adv-x="1000" />
<glyph glyph-name="arrow-down" unicode="&#xe800;" d="M500-149l-499 498 63 63 391-391v828h90v-828l392 391 62-62-499-499 0 0z" horiz-adv-x="1000" />

<glyph glyph-name="arrow-left" unicode="&#xe801;" d="M1 350l498 499 63-62-391-392h828v-90h-828l391-392-62-62-499 499 0 0z" horiz-adv-x="1000" />

<glyph glyph-name="arrow-right" unicode="&#xe802;" d="M999 350l-498 499-63-62 391-392h-828v-90h828l-391-392 63-62 498 499 0 0z" horiz-adv-x="1000" />

<glyph glyph-name="arrow-top" unicode="&#xe803;" d="M500 849l-499-498 63-63 391 391v-828h90v828l392-391 62 63-499 498 0 0z" horiz-adv-x="1000" />

<glyph glyph-name="instagram-with-circle" unicode="&#xe804;" d="M703 504a86 86 0 0 1-49 49 144 144 0 0 1-49 9c-27 1-35 2-105 2s-78-1-105-2a144 144 0 0 1-49-9 86 86 0 0 1-49-49 144 144 0 0 1-9-49c-1-27-1-35-1-105s0-78 1-105a144 144 0 0 1 9-49 86 86 0 0 1 49-49 144 144 0 0 1 49-9c27-1 36-1 105-1s78 0 105 1a144 144 0 0 1 49 9 86 86 0 0 1 49 49 144 144 0 0 1 9 49c1 27 2 36 2 105s-1 78-2 105a144 144 0 0 1-9 49z m-203-288a134 134 0 1 0 134 134 134 134 0 0 0-134-134z m139 242a31 31 0 1 0 31 31 31 31 0 0 0-31-31z m-52-108a87 87 0 1 0-87 87 87 87 0 0 0 87-87z m-87 500a500 500 0 1 1 500-500 500 500 0 0 1-500 500z m259-607a191 191 0 0 0-12-64 133 133 0 0 0-76-76 191 191 0 0 0-64-12c-27-1-36-1-107-1s-80 0-107 1a191 191 0 0 0-64 12 133 133 0 0 0-76 76 191 191 0 0 0-12 64c-1 27-1 36-1 107s0 80 1 107a191 191 0 0 0 12 64 133 133 0 0 0 76 76 191 191 0 0 0 64 12c27 1 36 1 107 1s80 0 107-1a191 191 0 0 0 64-12 133 133 0 0 0 76-76 191 191 0 0 0 12-64c1-27 1-36 1-107s0-80-1-107z" horiz-adv-x="1000" />

<glyph glyph-name="balloon" unicode="&#xe809;" d="M861 515c-18 185-181 335-361 335 0 0 0 0 0 0-180 0-343-150-362-335-20-154 61-324 218-455l79-74 10-49v-87h108v99l8 33 76 71 0 0c165 141 245 305 224 462z m-311-433c63 239 56 477-19 713 103-82 169-190 185-308 20-138-26-276-132-405h-34z m-135 0c-106 127-153 270-134 406 17 119 84 227 190 308-81-235-88-475-21-714h-35z m66 0c-68 237-62 475 20 709 76-234 82-472 18-709h-38z m-313 430c16 152 136 279 280 304-109-86-178-199-196-324-20-138 24-281 125-410h-3c-148 125-225 286-206 430z m306-562l-7 29h63l-7-29h-49z m3-71v41l1 0h41l4 0v-41h-46z m68 129h-90l-49 45h187l-48-45z m81 74h-4c99 129 143 272 124 409-18 125-86 238-194 325 143-25 264-152 280-305 19-144-54-296-206-429z" horiz-adv-x="1000" />

<glyph glyph-name="hands" unicode="&#xe80a;" d="M626 691h-251l-88 62-287-409 65-45-30-21 86-123 20 14 67-95 46 32 66-95 46 32 67-96 67 47 67-47 67 96 46-33 67 96 46-30 65 94 22-15 86 123-30 21 64 45-286 409-88-62z m-497-490l-48 69 75 53 48-69-75-53z m106-68l-19-13-48 68 111 79 49-69-93-65h0z m94-77l-48 69 103 72 47-69-102-72z m112-63l-48 69 76 52 48-68-76-53z m479 277l-48-68-87 62-170 119-19-27 29-20 207-146-48-69-32 21-29 21-139 99-19-26 155-111-48-69-19 14 0 0-60 41-1 1-55 39-10-13-9-14 71-50 18-12-48-69-30 21 34 24-66 94-20 28-19-13-3 5-63 91-38-26-67 95-56-39-67 95-70-49-48 33 249 355 69-49h215l-10-6-256-99-23-200 126-19 36 110 14 2h181 10 11l23-16 216-151v0l13-9z m-13 49l-229 160h-5l-210 0-36-6-33-103-68 11 17 148 240 93 123 85 248-355-47-33z" horiz-adv-x="1000" />

<glyph glyph-name="heart" unicode="&#xe80b;" d="M737 507c-31 31-71 47-114 47-43 0-83-16-114-47l-5-5-5 5c-31 31-71 47-114 47s-83-16-114-47l-2-2c-63-63-63-165 0-228l224-224h22l224 224c63 63 63 165 0 228l-2 2z m-19-209l-214-214-214 214c-51 52-51 135 0 186l2 2c25 25 58 39 93 39s68-14 93-39l15-15h22l15 15c25 25 58 39 93 39s68-14 93-39l2-2c51-51 51-134 0-186z m-210 552h-31v-103h31v103z m-200-153l-52 90-25-15 51-89 26 14z m-148-142l-89 51-15-25 89-52 15 26z m-56-197h-104v-31h104v31z m-41-252l15-25 90 51-15 26-90-52z m181-185l26-15 51 89-26 15-51-89z m249-71h30l0 103h-30l0-103z m199 153l52-90 26 15-52 90-26-15z m148 142l89-51 15 26-89 51-15-26z m57 228v-31h103v31h-103z m40 221l-15 26-89-52 14-26 90 52z m-181 185l-25 15-52-89 26-15 51 89z m-371-280c-27 0-53-11-72-30l-2-2c-40-40-40-104 0-143 3-3 7-5 10-5 4 0 8 2 11 4 6 6 6 16 0 22-28 27-28 73 0 101l2 2c14 13 32 21 51 21 8 0 15 7 15 15 0 8-7 15-15 15z" horiz-adv-x="1000" />

<glyph glyph-name="mountain" unicode="&#xe80c;" d="M998-96l-265 516c-3 5-8 8-14 8h0c-6 0-11-3-14-8l-219-422 28-15 117 226h36l43-28c3-2 6-3 9-3s6 1 8 3l43 28h36l153-297h-916l263 456 67 27 40-27c3-1 6-2 9-2s6 1 9 2l40 27 67-27 42-73 27 16-169 293v184h149l-62-63 62-62h-118v-32h194l-94 94 94 94h-257v-215l-404-699c-3-5-3-11 0-16 3-5 8-8 14-8h968c6 0 11 3 14 8 3 4 3 10 0 15z m-232 337c-3 0-6-1-9-3l-38-25-38 25c-3 2-6 3-9 3h-25l72 138 71-138h-24z m-344 328l91-157-38 15c-5 2-11 1-15-1l-38-26-38 26c-5 2-10 3-15 1l-38-15 91 157z m16-235h-32v-31h32v31z m0-62h-32v-31h32v31z m-32-94h32v31h-32v-31z" horiz-adv-x="1000" />

<glyph glyph-name="people" unicode="&#xe80d;" d="M999 74c-21 34-80 70-146 91-25 8-27 23-29 38-2 11 2 22 13 33 21 23 37 53 42 76 10 4 19 15 22 31 3 17 5 36 2 54-2 12-8 19-15 23 0 19-6 56-14 77-18 46-63 74-120 74 0 0 0 1 0 1 0 0 0 0 0 0s0 0 0 0c0 0 0-1 0-1-57 0-101-28-119-73-9-22-14-58-14-78-7-4-14-11-16-23-3-18 0-37 3-54 3-16 11-27 22-31 4-23 20-53 42-76 10-11 14-22 13-33-3-15-5-30-30-38-13-4-67-23-103-40-25 12-54 23-87 33-29 9-32 26-35 45-2 14 3 26 16 40 28 30 49 68 56 98 14 7 25 23 29 44 4 22 7 48 3 72-3 17-11 26-20 32 0 27-8 72-19 100-24 61-84 98-160 98 0 0 0 0 0 0 0 0 0 0 0 0 0 0 0 0 0 0 0 0-1 0-1 0-76 0-136-37-160-98-11-28-18-73-18-100-10-6-18-15-21-32-4-24 0-50 4-72 3-21 14-37 29-44 6-30 28-68 55-98 13-14 18-26 16-40-3-19-5-36-35-45-91-29-167-72-200-114-6-7-5-18 3-24 3-3 7-4 10-4 6 0 11 2 14 7 28 36 100 75 184 102 50 15 55 52 59 73 3 24-5 47-25 68-26 28-47 67-48 90-1 10-8 17-17 17-4 0-9 7-11 18-4 19-7 42-4 60 2 7 3 8 11 11 7 3 12 11 11 19-2 14 4 65 16 95 7 18 37 77 128 77 91 0 121-59 128-77 12-30 18-81 16-95-1-8 3-16 10-19 8-3 10-4 11-11 3-18 0-41-3-60-2-11-8-18-11-18-9 0-17-7-17-17-2-23-23-62-48-90-21-22-29-44-25-68 3-21 8-58 59-73 94-30 156-66 180-104 3-5 9-8 15-8 3 0 6 1 9 2 8 6 11 16 6 24-18 27-48 52-90 75 33 14 75 29 86 33 37 11 40 37 43 53 2 17-4 33-18 49-20 22-37 53-38 71 0 5-4 9-10 9-4 0-10 8-11 17-3 15-5 33-3 47 1 7 4 9 10 12 5 2 7 6 6 10-1 12 4 52 13 75 5 14 29 61 101 61 72 0 96-47 102-61 9-23 14-63 12-75-1-4 2-8 6-10 7-3 9-5 10-12 3-14 0-32-2-47-2-9-7-17-12-17-5 0-9-4-10-9-1-18-17-49-37-71-15-16-21-32-18-49 2-16 6-42 42-53 62-20 117-54 135-83 2-3 5-5 8-5 2 0 4 1 5 1 5 3 6 9 4 14z" horiz-adv-x="1000" />

<glyph glyph-name="person" unicode="&#xe80e;" d="M500 850c-276 0-500-224-500-500s224-500 500-500 500 224 500 500-224 500-500 500z m0-969c-132 0-251 55-336 143 12 10 38 28 91 46l41 13 145-64 59 59 59-59 145 64 41-13c54-18 80-36 92-46-86-88-205-143-337-143z m-156 554v24c26 0 47 21 47 47v32c0 8 7 15 15 15h129l43 22v-22h16c8 0 15-7 15-15v-32c0-26 21-47 47-47v-24l-15-16v-6c0-67-39-172-141-172s-141 105-141 172v6l-15 16z m265 147v43l-81-41h-122c-26 0-47-21-47-46v-32c0-8-7-15-15-15v109c0 17 14 31 31 31h31v16c0 17 14 31 32 31h171c26 0 47-21 47-47v-140c-8 0-15 7-15 15v32c0 20-13 37-32 44z m-93-463l105 27 52-42-107-48-50 51v12z m-16 28l-78 20v62c22-12 47-20 78-20s57 8 78 20v-62l-78-20z m-16-28v-12l-50-51-107 48 52 42 105-27z m271-20l-44 15-82 66-20-5v78c43 41 61 105 63 153l16 16v209c0 43-35 78-79 78h-171c-30 0-54-19-61-46h-2c-34 0-62-28-62-63v-178l15-16c2-48 20-112 63-153v-78l-20 5-82-66-44-15c-57-19-87-38-103-52-69 82-111 188-111 303 0 259 211 469 469 469s469-210 469-469c0-115-42-221-111-303-16 14-46 33-103 52z m-271-108h32v31h-32v-31z m0-63h32v31h-32v-31z" horiz-adv-x="1000" />

<glyph glyph-name="pin" unicode="&#xe80f;" d="M514 583c-68 0-123-55-123-122 0-68 55-123 123-123 67 0 122 55 122 123 0 67-55 122-122 122z m0-196c-41 0-75 33-75 74s34 74 75 74c40 0 74-33 74-74s-34-74-74-74z m456 358c-27 36-68 56-115 56-36 0-71-12-99-35-23-18-41-44-50-71-16 8-33 12-51 12-10 0-21-1-30-4-35 16-73 24-113 24-149 0-266-119-266-271 0-10 1-21 2-32-23 11-48 17-75 17-95 0-173-77-173-172 0-9 1-18 2-26 1-6 6-10 12-10h283c6-16 12-31 17-43 38-98 84-192 121-244 22-30 50-47 79-47 29 0 56 17 76 46 66 97 190 373 190 510 0 48-12 94-33 131h233c6 0 10 5 12 10 16 52 8 108-22 149z m-945-487c-1 2-1 7-1 11 0 82 67 148 149 148 65 0 122-42 142-105 1-4 4-7 8-8 4-1 9 0 12 3 15 15 36 24 58 24 42 0 78-32 84-73h-452z m525-285c-11-16-23-25-36-25v0c-12 0-27 10-39 27-37 52-88 156-126 258h141c3 0 6 1 8 3 3 3 4 6 4 9 0 60-49 109-109 109-22 0-43-6-61-18-7 16-16 31-28 45-6 28-9 54-9 75 0 125 95 223 217 223 22 0 42-3 62-9-18-19-27-44-28-69 0-4 1-8 4-10 2-2 5-5 8-5h132c26-35 41-81 41-131 0-116-113-383-181-482z m421 639h-400c7 41 43 71 84 71 18 0 36-6 51-17 3-3 7-3 11-2 4 2 7 5 8 9 13 60 68 104 130 104 40 0 74-17 96-47 23-32 31-75 20-118z" horiz-adv-x="1000" />

<glyph glyph-name="plane" unicode="&#xe810;" d="M1000 767c0 46-37 83-83 83-34 0-78-43-80-45l-182-182-507 60c-6 1-12-1-16-5l-68-63c-5-4-8-12-6-19 1-7 6-13 13-15l388-154-202-202h-194c-7 0-13-3-17-8l-41-52c-5-5-6-12-4-19 2-6 7-11 13-14l199-69 69-199c3-6 8-11 14-13 2-1 4-1 6-1 5 0 9 2 13 5l52 41c5 4 8 10 8 16v195l202 202 154-389c2-6 8-11 15-12 7-2 15 1 19 6l63 68c4 4 6 10 5 16l-60 507 182 182c0 0 45 45 45 80z m-263-241c-4-5-6-10-5-16l61-507-36-40-155 390c-2 6-7 11-13 12-2 0-3 0-4 0-5 0-10-2-13-5l-231-231c-4-3-6-8-6-13v-194l-22-18-2-2-64 184c-2 5-6 9-11 11l-184 64 19 24 195 0c5 0 10 2 13 6l231 231c4 4 6 11 5 17-1 6-6 11-12 13l-390 155 39 35 508-60c1 0 2 0 2 0 5 0 10 2 14 5l189 190c13 13 41 33 52 33 24 0 43-19 43-43 0-11-21-40-33-52l-190-189z" horiz-adv-x="1000" />

<glyph glyph-name="planet" unicode="&#xe811;" d="M967 238c-10 4-21-3-24-13-16-56-42-106-75-150-18 8-22 13-22 13s0 0 0 0c-6 14-3 20 2 31 3 5 6 12 8 20 2 11-1 22-4 31-4 16-6 21 8 30 21 13 50 35 48 69 0 11-10 20-21 19-11 0-19-9-19-20 0-4 1-15-29-34-39-25-30-57-25-75 1-4 3-10 2-12-1-4-2-7-4-12-6-13-14-31-4-60 4-12 15-22 34-32-86-95-209-153-342-153-107 0-211 37-293 105-8 7-21 6-28-3-7-8-6-21 3-28 89-73 202-114 318-114 223 0 421 150 481 364 3 10-3 21-14 24z m-947 79h1c11 2 19 10 19 21 0 4 0 8 0 12 0 59 11 115 32 167 33-60 72-103 98-116 11-5 12-12 11-39 0-19-1-42 9-64 11-22 29-31 44-38 15-7 23-11 28-22 4-7 11-11 18-11 3 0 6 0 9 2 10 4 14 16 9 26-11 24-31 34-46 41-14 7-21 11-25 19-7 14-6 29-6 46 1 26 2 59-33 76-19 10-62 56-95 126 58 112 161 196 285 230 0-37 15-64 27-85 8-14 15-26 15-37 0-32-3-36-15-38-6-1-16 1-25 4-18 4-41 10-63-4-20-12-22-29-23-41-1-10-2-13-12-19-8-4-23 0-36 3-20 6-54 14-69-17-17-39 18-63 38-76 4-3 8-6 12-9 30-25 61-24 86-24 17 0 31 1 44-6 12-7 12-13 12-27 1-13 2-34 21-49 17-13 31-18 45-18 15 0 29 7 39 11 12 6 19 9 27 7 4-1 7-2 11-3 11-3 22 3 25 13 3 11-3 22-13 25-5 2-10 3-15 4-21 5-38-3-52-9-17-9-25-12-42 1-5 4-5 7-6 20 0 16-1 41-32 59-22 13-45 13-65 12-22 0-41-1-60 15-4 3-9 7-15 11-23 15-26 20-24 26 3 1 15-2 23-4 19-5 43-11 65 0 28 15 31 37 33 49 1 10 1 10 4 13 7 4 17 2 32-2 13-3 27-7 42-4 48 8 48 50 48 77 0 22-10 40-20 57-13 22-25 43-22 75 16 2 32 4 48 6 1-16 3-36 7-44 15-28 36-38 56-38 9 0 18 2 27 6 37 16 48 43 49 64 22-5 43-11 64-19-58-62-64-87-37-123 4-5 8-10 13-13 4-3 8-5 12-5 6 0 12 3 16 8 7 8 6 21-3 28-2 1-4 3-6 6-10 14-15 21 44 81 32-16 63-37 92-61 8-7 20-6 28 2 7 9 6 21-2 29-91 77-206 120-326 120-194 0-363-112-446-274-1-2-2-4-3-6-33-67-51-141-51-220 0-4 0-9 0-13 0-11 9-20 20-20z m547 488c1-17-7-29-26-37-16-7-28 4-33 13-1 3-3 15-4 29 20 0 43-2 63-5z m-178-815c-10-3-21-3-28 18-3 10-14 17-24 13-11-3-16-15-13-25 10-30 30-46 56-46 6 0 13 1 20 3 43 13 41 53 40 66-1 11-10 20-21 19-11 0-18-10-18-21 2-21-4-25-12-27z m602 696c-5 4-12 5-18 3l-308-115c-7-2-12-9-13-17-1-7 3-15 10-19l86-52c-36-38-125-128-220-193l-11-7c-77-53-194-133-303-133-70 0-129 32-178 97-6 7-16 10-25 5-9-4-13-14-10-23 35-116 124-176 256-176 103 0 233 38 349 102 128 72 244 181 284 222l76-77c6-5 14-7 22-4 7 3 12 10 12 19v352c0 7-3 13-9 16z m-30-320l-56 56c-7 7-19 8-27 2 0 0-2-1-2-2-15-15-143-148-289-229-111-61-234-97-330-97-58 0-105 12-142 37 31-13 64-20 99-20 122 0 245 84 326 140l10 7c128 86 240 211 244 217 4 4 6 10 5 16-1 6-4 11-9 14l-72 44 243 90v-275z" horiz-adv-x="1000" />

<glyph glyph-name="point" unicode="&#xe812;" d="M754-130c-33 0-66 7-98 22l-334 158c-43 20-61 71-41 113 2 4 5 8 8 10 33 20 99 30 140 15l-151 244c-25 40-12 92 28 117l0 0c19 12 42 16 64 11 22-6 41-19 53-38l68-110c5 6 11 11 18 15 25 15 55 16 81 4 7 13 17 24 29 32 25 15 56 16 81 4 7 13 17 24 30 32 20 12 45 16 68 10 22-6 40-20 50-39l122-223c60-110 21-229-44-299-48-51-110-78-172-78z m-435 268c-2-8-2-16 1-25 4-10 11-18 21-22l334-158c89-42 171-4 218 46 54 58 87 156 38 246l-122 223c-5 8-13 14-23 17-11 3-23 1-32-5-11-7-18-18-19-31-1-9-7-17-16-20-8-3-18 0-24 7-13 15-35 19-52 8-11-7-18-18-19-31-1-9-7-17-15-20-9-3-19 0-25 7-12 15-35 19-52 8-9-6-15-15-18-26-2-9-9-16-18-17-9-2-18 2-23 10l-88 143c-6 9-15 15-25 18-11 2-21 0-31-5l0 0c-18-12-24-37-13-56l191-308c5-8 4-19-2-27-7-7-18-9-27-5l-63 30c-21 10-69 6-96-7z m-111 38c-3 0-7 1-10 2-120 56-198 178-198 311 0 188 153 341 342 341 155 0 290-104 330-254 3-12-4-25-16-28-12-3-25 4-28 16-34 130-152 221-286 221-164 0-297-133-297-296 0-116 68-221 172-270 12-5 17-18 11-30-4-8-12-13-20-13z m73 117c-2 0-5 0-7 1-82 29-137 107-137 194 0 113 92 204 205 204 100 0 187-74 203-173 2-13-7-24-19-26-13-2-24 7-26 19-12 77-80 135-158 135-88 0-160-71-160-159 0-68 43-129 107-151 12-4 18-17 14-29-4-9-12-15-22-15z" horiz-adv-x="1000" />

<glyph glyph-name="pointer" unicode="&#xe813;" d="M399 300v-44h-153l-101-106 101-106h153v-83h-61v-108h291v108h-61v83h271l-101 106 101 106h-271v44h331l101 106-101 106h-331v43h271l-101 106 101 106h-271v80h-169v-80h-153l-101-106 101-106h153v-43h-399l101-106-101-106h399z m194-375v-36h-219v36h219z m-61 36h-97v83h97v-83z m223 259l-67-70 67-70h-494l-66 70 66 70h494z m-223 36h-97v44h97v-44z m-97 555h97v-44h-97v44z m-174-220l-66 70 66 70h494l-67-70 67-70h-494z m174-36h97v-43h-97v43z m-351-79h800l66-70-66-70h-800l67 70-67 70z" horiz-adv-x="1000" />

<glyph glyph-name="register" unicode="&#xe814;" d="M865 659h0l-185 185-6 6h-545v-1000h742v803l-6 6z m-179 120l57-57 58-57h-115v114z m144-888h-660v918h475v-165l21-21h164v-732z m-473 609h403v41h-403v-41z m315-23h-315v-43h315v43z m-315-145h403v41h-403v-41z m315-23h-315v-43h315v43z m-315-144h403v41h-403v-41z m0-67h315v41h-315v-41z m-132 0h107v108h-107v-108z m41 67h25v-26h-25v26z m281 576h-322v-108h322v108z m-41-67h-240v26h240v-26z m-237-166l-8 7-28-30 40-37 66 82-32 26-38-48z m0-170l-8 6-28-30 40-37 66 82-32 26-38-47z" horiz-adv-x="1000" />

<glyph glyph-name="shield" unicode="&#xe815;" d="M344 600h-31v-31h31v31z m131 43l-147 68-175-80h-59v-47c0-257 225-372 227-374l7-3 7 3c3 2 76 39 139 116l-24 20c-48-59-103-93-122-104-36 21-203 130-203 342v16h35l168 76 134-61 13 28z m-131-105h-31v-32h31v32z m-313 77v79h82l215 92 213-91 12 28-225 97-222-95h-106v-110c0-285 161-424 258-482l16 26c-91 55-243 187-243 456z m594-609h31v32h-31v-32z m232 163c-26 10-53 21-80 36l-35 52-8-1v39c15 14 50 55 63 146l0 65c0 103-53 156-156 156s-157-53-157-156v-63l1-2c13-91 47-132 62-146v-39l-7 1-35-52c-27-15-54-26-81-36-73-27-143-54-143-179v-109h32v109c0 104 48 122 122 150 24 9 51 20 78 34l62-62 66 32 65-32 62 62c27-14 54-25 78-34 74-28 123-46 123-150v-109h31v109c0 125-69 152-143 179z m-216 462c83 0 122-36 124-116l-47-24-156 63-45-22c7 68 46 99 124 99z m-125-187v52l47 24 157-63 46 23v-36c-14-92-50-124-55-128-28-13-70-14-70-14-1 0-43 1-70 14-5 4-42 36-55 128z m187-164v-29l-62-11-63 11v29c30-9 61-9 63-9s32 0 62 9z m-3-130l-59 29-60-29-45 45 18 28 87-14 86 14 19-28-46-45z m144-269h31v94h-31v-94z m-219 188h31v31h-31v-31z m-219-188h32v94h-32v-94z m-93 563h31v31h-31v-31z" horiz-adv-x="1000" />

<glyph glyph-name="sight" unicode="&#xe816;" d="M938 370c-10 226-192 408-418 418v62h-39v-62c-227-10-409-192-419-418h-62v-39h62c10-227 192-409 419-419v-62h39v62c226 10 408 192 418 419h62v39h-62z m-39-39c-10-206-174-370-379-380v59h-39v-59c-206 10-370 174-380 380h59v39h-59c10 205 174 369 380 379v-59h39v59c205-10 369-174 379-379h-59v-39h59z m-399 107c-49 0-88-39-88-88s39-88 88-88c49 0 88 39 88 88s-39 88-88 88z m0-137c-27 0-49 22-49 49 0 27 22 50 49 50 27 0 49-23 49-50 0-27-22-49-49-49z" horiz-adv-x="1000" />

<glyph glyph-name="speaker" unicode="&#xe817;" d="M365-133h-93c-42 0-83 33-93 74l-64 272h-9c-59 0-106 48-106 106v119c0 58 47 106 106 106h260c139 0 279 146 354 225 45 46 62 64 83 64h9c47 0 85-39 85-86v-211c62-27 103-89 103-158 0-68-41-130-103-157v-211c0-48-38-86-85-86h-9c-21 0-38 18-83 64-75 79-215 225-354 225h-25c1-10 1-21 1-31 2-38 3-74 23-105l62-98c13-20 12-47-1-71-14-25-37-41-61-41z m-191 346l61-259c4-15 22-29 37-29h93c2 0 7 4 11 11 3 7 3 11 2 12l-62 98c-28 45-30 92-31 134 0 12-1 23-1 33h-110z m635-231h3c15 0 28 12 28 28v223c-1 5-1 10 0 15v261c-1 5-1 10 0 14v224c0 16-13 28-28 28h-3c-9-7-29-28-47-46-76-79-212-221-362-241v-219c150-20 286-162 362-241 18-19 38-39 47-46z m-500 289h34v215h-237c-27 0-48-22-48-48v-119c0-27 21-48 48-48h203z m588 199v-183c28 22 46 55 46 91 0 37-18 70-46 92z" horiz-adv-x="1000" />

<glyph glyph-name="instagram" unicode="&#xf16d;" d="M571 350q0 59-41 101t-101 42-101-42-42-101 42-101 101-42 101 42 41 101z m77 0q0-91-64-156t-155-64-156 64-64 156 64 156 156 64 155-64 64-156z m61 229q0-21-15-36t-37-15-36 15-15 36 15 36 36 15 37-15 15-36z m-280 123q-4 0-43 0t-59 0-54-2-57-5-40-11q-28-11-49-32t-33-49q-6-16-10-40t-6-58-1-53 0-59 0-43 0-43 0-59 1-53 6-58 10-40q12-28 33-49t49-32q16-6 40-11t57-5 54-2 59 0 43 0 42 0 59 0 54 2 58 5 39 11q28 11 50 32t32 49q6 16 10 40t6 58 1 53 0 59 0 43 0 43 0 59-1 53-6 58-10 40q-11 28-32 49t-50 32q-16 6-39 11t-58 5-54 2-59 0-42 0z m428-352q0-128-3-177-5-116-69-180t-179-69q-50-3-177-3t-177 3q-116 6-180 69t-69 180q-3 49-3 177t3 177q5 116 69 180t180 69q49 3 177 3t177-3q116-6 179-69t69-180q3-49 3-177z" horiz-adv-x="857.1" />

<glyph glyph-name="snapchat" unicode="&#xf2ab;" d="M714 209q0 13-12 15-38 9-66 33t-45 61q-4 10-4 14 0 8 11 14t24 10 24 11 11 20q0 11-10 18t-22 7q-7 0-18-4t-17-5q-2 0-7 1 3 53 3 64 0 44-9 63-21 44-58 68t-85 24q-111 0-153-92-10-19-10-63 0-11 3-64-2-1-8-1-6 0-18 4t-16 4q-12 0-22-6t-10-18q0-12 11-20t24-11 24-10 11-14q0-4-4-14-35-77-110-94-13-2-13-15 0-25 77-38 1-2 3-14t7-17 13-5q6 0 21 2t22 3q19 0 37-9t30-18 32-18 43-8q24 0 44 8t32 18 30 18 37 9q8 0 23-3t21-2q9 0 13 6t6 17 3 13q77 13 77 38z m143 141q0-117-57-215t-156-156-215-58-216 58-155 156-58 215 58 215 155 156 216 58 215-58 156-156 57-215z" horiz-adv-x="857.1" />

<glyph glyph-name="snapchat-ghost" unicode="&#xf2ac;" d="M473 779q75 0 134-39t92-107q15-32 15-100 0-26-5-106 8-4 15-4 10 0 29 7t28 8q16 0 32-10t15-26q0-18-18-30t-38-18-39-16-18-26q0-9 7-24 21-46 57-84t81-57q16-6 45-12 15-4 15-20 0-39-122-57-4-6-6-22t-8-26-18-10q-11 0-35 3t-36 4q-20 0-34-3-18-3-35-13t-33-21-32-22-43-19-55-8q-29 0-54 8t-41 19-33 22-32 21-35 13q-14 3-35 3-13 0-36-4t-33-5q-14 0-19 11t-8 26-6 23q-123 18-123 57 0 16 16 20 29 6 45 12 43 18 80 57t58 84q6 15 6 24 0 15-17 26t-39 17-39 17-18 29q0 15 15 26t31 10q8 0 26-7t30-7q10 0 18 4-5 79-5 106 0 68 15 100 36 76 96 110t147 36z" horiz-adv-x="928.6" />

<glyph glyph-name="snapchat-square" unicode="&#xf2ad;" d="M714 209q0 13-12 15-37 8-66 33t-44 61q-4 7-4 14 0 8 11 14t23 10 24 11 11 20q0 11-10 18t-22 7q-6 0-17-4t-18-5q-2 0-7 1 3 35 3 64 0 44-9 64-21 43-58 68t-85 24q-110 0-153-92-10-21-10-64 0-21 3-64-6-1-8-1-6 0-18 5t-17 4q-11 0-21-7t-10-18q0-12 11-20t24-11 24-10 11-14q0-7-4-14-36-77-111-94-12-2-12-15 0-26 77-38 1-3 3-15t6-17 13-5q7 0 22 3t21 3q20 0 38-9t30-18 32-18 43-8q24 0 44 8t32 18 30 18 38 9q7 0 22-3t22-2q8 0 12 5t7 17 2 14q77 12 77 38z m143 409v-536q0-66-47-113t-114-48h-535q-67 0-114 48t-47 113v536q0 66 47 113t114 48h535q67 0 114-48t47-113z" horiz-adv-x="857.1" />
</font>
</defs>
</svg>
